<?xml version="1.0" encoding="utf-8"?>
<!-- Generator: Adobe Illustrator 15.0.0, SVG Export Plug-In . SVG Version: 6.00 Build 0)  -->
<!DOCTYPE svg PUBLIC "-//W3C//DTD SVG 1.1//EN" "http://www.w3.org/Graphics/SVG/1.1/DTD/svg11.dtd">
<svg version="1.1" id="Layer_1" xmlns="http://www.w3.org/2000/svg" xmlns:xlink="http://www.w3.org/1999/xlink" x="0px" y="0px"
	 width="312px" height="40px" viewBox="0 0 312 40" enable-background="new 0 0 312 40" xml:space="preserve">
<g>
	<g id="Violet_11_">
		<path fill="#400080" d="M23.781,39.083l0.26,0.001l0.536-0.018l0.396,0.017h0.075l0.407-1.108L40.899,1.972L41.34,0.87H29.548
			l-0.433,1.102l-8.29,19.854c-0.121,0.293-0.237,0.665-0.354,1.106c-0.115-0.442-0.237-0.813-0.354-1.106L12.351,1.972l-0.508-1.06
			L0,0.845l0.396,1.126l14.913,36.003l0.487,1.108l0.458,0.012l0.732-0.012H23.781z M1.587,1.972h1.588
			c0.206,0.764,0.48,1.572,0.836,2.427C3.866,5.72,3.808,6.736,3.84,7.442L1.587,1.972z M12.705,7.223
			c-0.737-1.741-1.471-3.488-2.204-5.251h0.656l4.061,10.369C14.395,10.927,13.559,9.222,12.705,7.223z M32.915,1.972h0.222v0.75
			l-0.75,1.058L32.915,1.972z M27.975,7.488c-0.443,1.793-0.75,3.38-0.925,4.764c-0.598,0.914-1.254,2.263-1.993,4.06
			c-0.794,1.969-1.41,3.34-1.847,4.106c-0.65,0.968-1.152,1.689-1.506,2.165C24.44,15.87,26.533,10.838,27.975,7.488z M34.28,12.341
			l1.502-1.325l-5.16,12.133C32.294,18.356,33.517,14.755,34.28,12.341z M16.5,37.975l-1.99-4.762
			c0.736,0.234,1.446,0.175,2.125-0.179l0.35,0.837c-0.059,1.03,0.209,1.84,0.792,2.432c-0.38,0.468-0.583,1.025-0.616,1.672H16.5z
			 M41.868,0.953v38.173h11.255V0.953H41.868z M52.018,38.021h-2.075c0.562-0.914,0.991-2.206,1.283-3.886
			c0.32-2.119,0.581-3.466,0.792-4.061V38.021z M44.12,23.924c0.676,0.481,1.015,0.873,1.015,1.168c0,0.265-0.338,0.617-1.015,1.059
			c-0.674,0.441-1.058,0.795-1.144,1.058v-4.366C43.062,23.077,43.446,23.436,44.12,23.924z M52.018,16.662l-1.455-0.704
			c0.41-0.499,0.894-1.119,1.455-1.852V16.662z M52.018,2.062v1.32c-0.378-0.557-0.824-1-1.321-1.32H52.018z M44.561,2.062
			c-0.73,0.262-1.261,0.763-1.584,1.5v-1.5H44.561z M98.308,19.974c0-5.796-2.032-10.573-6.088-14.339
			c-3.969-3.679-8.883-5.509-14.741-5.509c-5.971,0-10.959,1.801-14.959,5.417c-4.177,3.738-6.264,8.544-6.264,14.431
			c0,5.999,2.06,10.854,6.173,14.561c3.976,3.562,8.987,5.343,15.05,5.343c6.031,0,11.01-1.816,14.935-5.453
			C96.343,30.791,98.308,25.973,98.308,19.974z M97.206,19.974c0,0.529-0.017,1.056-0.047,1.589
			c-1.026-2.589-1.575-4.398-1.631-5.428c-0.088-1.97-0.149-3.061-0.175-3.265c-0.121-0.911-0.486-1.97-1.103-3.179
			C96.216,12.692,97.206,16.12,97.206,19.974z M66.668,14.899c0.62-0.763,1.321-1.396,2.119-1.896
			c-0.766,0.973-1.342,2.061-1.724,3.262C66.862,15.647,66.728,15.195,66.668,14.899z M67.597,19.842
			c0-2.764,0.938-5.086,2.824-6.973c1.885-1.88,4.206-2.823,6.97-2.823c2.647,0,4.922,0.992,6.815,2.98
			c1.897,1.982,2.849,4.3,2.849,6.947c0,2.879-0.9,5.238-2.693,7.057c-1.794,1.83-4.114,2.739-6.971,2.739
			c-2.999,0-5.382-0.906-7.145-2.713C68.478,25.246,67.597,22.843,67.597,19.842z M71.259,37.978
			c-4.093-1.09-7.371-3.128-9.839-6.113c-2.476-2.982-3.812-6.578-4.021-10.791c0.944,2.355,2.401,4.739,4.375,7.151
			c0.705,3.147,2.792,5.309,6.263,6.484C69.45,36.303,70.521,37.389,71.259,37.978z M112.691,0.953h-11.28l0.029,1.109v37.064
			h22.901v-9.578h-11.649V0.953z M109.557,2.457l-1.016-0.395h3.048v6.971c-0.292-0.119-0.603-0.177-0.925-0.177
			c0.111-0.943,0.173-1.711,0.173-2.296C110.836,4.854,110.41,3.486,109.557,2.457z M102.54,8.191l0.443,0.178l-0.22-0.089
			c0.294,0.147,0.515,0.263,0.661,0.355c0.443,0.026,0.78,0.042,1.009,0.042h0.27c-0.913,1.855-1.633,3.855-2.163,6.002V8.191z
			 M102.54,38.021v-0.749c0.175,0.293,0.427,0.54,0.752,0.749H102.54z M112.07,38.021v-0.353l1.195-1.241
			c0.759,0.065,1.379-0.053,1.842-0.345l0.142-0.047c0.058,0.824,0.425,1.483,1.1,1.986H112.07z M123.236,38.021h-3.353
			c0.409-0.238,0.958-0.727,1.632-1.479c0.676-0.751,1.25-1.269,1.721-1.565V38.021z M150.329,39.126v-9.404h-11.782v-5.027h10.762
			v-9.045h-10.762v-5.206h11.761l0.021-8.382V0.953h-22.156v38.173H150.329z M147.856,2.062c-1.029,0.021-1.796,0.501-2.295,1.411
			c-0.974-0.798-1.677-1.267-2.119-1.411H147.856z M129.28,2.062h2.252c-1,0.555-1.754,1.379-2.252,2.471V2.062z M146.003,23.593
			c0.057-0.707-0.105-1.33-0.484-1.855l0.663-0.043c0.437,0.293,0.939,0.438,1.498,0.438l0.532-0.083v1.544H146.003z
			 M144.547,31.798c-0.621-0.208-1.148-0.34-1.585-0.397c-0.272-0.208-0.563-0.398-0.888-0.574h7.15v0.792
			c-0.298,0-0.69,0.091-1.19,0.269c-0.442-0.149-0.884-0.223-1.326-0.223h-0.791C145.526,31.665,145.081,31.71,144.547,31.798z
			 M129.28,38.021v-3.397c0.473,0.472,0.943,0.866,1.411,1.192c0.527,0.911,1.335,1.367,2.427,1.367
			c0.912,0,1.837-0.102,2.778-0.311l0.05,0.09l-0.225,0.18l0.262-0.093c0.15,0.387,0.371,0.707,0.668,0.972H129.28z M141.683,38.021
			c0.967-0.556,1.688-0.983,2.157-1.279c0.326,0.058,0.882,0.296,1.68,0.703c0.674,0.355,1.234,0.544,1.677,0.576H141.683z
			 M151.434,0.87v9.485h7.935V39.08h11.212V10.355h7.984V0.87H151.434z M169.476,37.978h-1.848c0.996-0.498,1.617-1.118,1.848-1.854
			V37.978z M169.476,30.917l-0.393-2.691l0.393-0.265V30.917z M161.095,27.519c0.057,1.854,0.325,3.592,0.791,5.204l-0.17,2.296
			l-0.049,0.4c0,0.676,0.305,1.25,0.925,1.723c0.529,0.438,1.148,0.703,1.854,0.79l-3.971,0.045V27.167L161.095,27.519z
			 M152.534,9.253V8.721c1.439,0.177,3.203,0.321,5.293,0.444l0.047,0.088H152.534z M177.47,1.972v7.281h-3.537l-0.039-0.178
			l2.115-0.089c0.679-0.646,1.016-1.35,1.016-2.115c0-0.23-0.033-0.47-0.088-0.706c0.115-0.352,0.179-0.708,0.179-1.061
			c0-0.767-0.309-1.456-0.931-2.075l0.09-0.572l-0.442-0.485H177.47z M170.231,1.972l-0.224,0.261
			c-2.059,0.266-3.605,0.503-4.636,0.71l-0.265-0.311c-0.672,0-1.779-0.068-3.303-0.224c-1.415-0.114-2.505-0.158-3.27-0.129
			l-1.545,0.045c-0.264-0.147-0.54-0.262-0.839-0.353H170.231z M154.035,1.972c-0.588,0.174-1.091,0.47-1.501,0.881V1.972H154.035z"
			/>
	</g>
	<g id="Fuse_11_">
		<path fill="#400080" d="M215.12,0.835h-21.916v1.108h0.044v37.046h9.611v0.041h1.105V24.121h10.493v-9.258h-10.493v-4.541h11.156
			V0.835z M194.521,31.356c-0.059,0.411-0.08,0.765-0.08,1.061c0,0.787,0.41,1.736,1.228,2.823l-0.084-0.134
			c0.26,0.324,0.703,0.619,1.321,0.884c-0.06,0.794,0.029,1.426,0.265,1.895h-2.821V31.31L194.521,31.356z M213.356,22.535v0.487
			h-1.5l0.395-0.532C212.637,22.577,213.005,22.597,213.356,22.535z M214.013,1.943v0.396c-0.851,0.117-2.012,0.424-3.482,0.924
			c-0.379-0.617-0.69-1.057-0.922-1.32H214.013z M194.349,1.943h6.086l-0.619,0.263l0.217-0.136
			c-0.377,0.15-0.613,0.298-0.704,0.442c-0.264-0.056-0.544-0.084-0.836-0.084c-1.97,0-3.358,0.704-4.145,2.114V1.943z
			 M208.596,9.219l5.417-1.282v1.282H208.596z M252.741,22.714V0.752h-11.162v22.799c0,4.144-1.848,6.221-5.558,6.221
			c-1.97,0-3.378-0.439-4.23-1.301c-0.85-0.871-1.277-2.29-1.277-4.257V0.752h-11.16v24.559c0,4.823,1.617,8.53,4.848,11.118
			c2.939,2.382,6.884,3.57,11.819,3.57c5.469,0,9.649-1.527,12.528-4.581C251.344,32.442,252.741,28.212,252.741,22.714z
			 M242.682,1.854h1.457c0.18,0.588,0.499,1.056,0.968,1.408l0.176,1.235c-1.144-0.027-2.008,0.471-2.601,1.502V1.854z
			 M251.062,17.07c0.177-1.59,0.265-3.264,0.265-5.03c0-3.086-0.283-6.481-0.835-10.186h1.14v17.243L251.062,17.07z M251.327,26.856
			c-0.296,1.827-0.794,3.439-1.503,4.854l-2.377-0.4C248.971,30.049,250.269,28.563,251.327,26.856z M220.454,1.854h0.309
			c0.176,0.676,0.687,1.277,1.543,1.804c-0.295,0.118-0.543,0.265-0.749,0.444l-0.883,1.541l-0.042,0.134l-0.177,0.31V1.854z
			 M227.376,1.854h2.037v2.644c-0.592,0.382-0.993,0.909-1.195,1.589C228.13,4.412,227.848,3,227.376,1.854z M233.291,38.725
			c-1.796-0.182-3.429-0.56-4.897-1.15c0.091-0.031,0.396-0.133,0.925-0.309c0.382-0.143,0.703-0.219,0.968-0.219
			C231.142,37.048,232.143,37.605,233.291,38.725z M220.454,25.312v-3.393c0.299,0.825,0.517,1.44,0.661,1.851
			c0.177,1.706,0.356,3.413,0.529,5.118c0.353,2.172,1.266,3.379,2.737,3.613c-0.063,0.329-0.086,0.615-0.086,0.885
			c0,0.526,0.188,1.042,0.571,1.543c0.382,0.5,0.776,1.004,1.189,1.501C222.324,34.077,220.454,30.371,220.454,25.312z
			 M283.959,26.418c0-3.175-1.277-5.78-3.833-7.807c-1.207-0.941-3.604-2.193-7.19-3.75c-2.556-1.146-3.837-2.219-3.837-3.22
			c0-0.589,0.212-1.117,0.64-1.589c0.426-0.463,0.945-0.705,1.566-0.705c2.175,0,4.233,0.767,6.174,2.293l0.838,0.708l4.053-7.367
			l0.538-0.971l-0.893-0.657C278.55,1.115,274.454,0,269.715,0c-3.439,0-6.423,1.163-8.951,3.485
			c-2.528,2.32-3.796,5.189-3.796,8.599c0,3.5,1.251,6.279,3.751,8.336c1.233,0.998,3.556,2.191,6.971,3.57
			c2.498,1.032,3.745,2.043,3.745,3.046c0,0.85-0.365,1.513-1.104,1.979c-0.616,0.413-1.366,0.62-2.241,0.62
			c-1.589,0-3.946-1.013-7.062-3.042l-0.927-0.62l-0.529,0.971l-4.229,7.937l0.878,0.706c4.232,2.77,8.999,4.152,14.29,4.152
			c3.966,0,7.202-1.229,9.706-3.68C282.712,33.603,283.959,30.389,283.959,26.418z M276.376,2.688
			c-2.883-0.731-4.622-1.252-5.208-1.541c3.974,0.232,7.409,1.295,10.325,3.178l-0.353,0.614
			C280.199,4.028,278.606,3.276,276.376,2.688z M263.941,4.19c0.822,0.294,1.703,0.63,2.64,1.014
			c-0.556,0.56-1.084,1.192-1.587,1.896L263.941,4.19z M272.277,7.718c1.701,0.763,3.216,1.384,4.542,1.854
			c0.411,0.383,0.877,0.617,1.408,0.704l-0.218,0.4c-2.003-1.563-4.178-2.37-6.528-2.43C271.713,8.012,271.98,7.835,272.277,7.718z
			 M258.512,15.344c-0.029,0.065-0.117-0.352-0.263-1.23c0.707,0,1.146-0.06,1.322-0.178l0.708,0.178l-1.586,1.673L258.512,15.344z
			 M269.935,14.598c2.031,1.029,3.573,1.748,4.631,2.159l-3.131,0.045C270.905,16.187,270.408,15.449,269.935,14.598z
			 M261.556,19.713c0.617-0.472,1.059-0.847,1.326-1.145c0.973,2.233,2.808,3.528,5.508,3.883l-0.44,0.439
			C264.833,21.683,262.703,20.626,261.556,19.713z M271.081,34.49l-0.967-0.047l0.397-0.44h0.223l0.307-0.175L271.081,34.49z
			 M260.236,28.095l0.261-0.535c1.592,1.063,3.03,1.845,4.324,2.34l-0.572,0.221C262.454,29.269,261.113,28.593,260.236,28.095z
			 M271.481,29.637c0.323-0.295,0.572-0.631,0.748-1.013c0.766,0.06,1.749,0.072,2.954,0.042c-0.645,0.972-1.055,1.559-1.231,1.768
			c-0.267,0.261-0.842,0.718-1.723,1.366C272.29,30.943,272.037,30.224,271.481,29.637z M280.391,31.047h-0.047
			c0.587-0.793,1.175-1.392,1.765-1.81l0.486,0.134c-0.205,0.882-0.486,1.72-0.84,2.516
			C281.195,31.476,280.743,31.192,280.391,31.047z M256.747,34.619l0.798-1.538l2.518,1.141c-0.564,0.413-0.915,0.989-1.062,1.719
			C258.263,35.564,257.515,35.121,256.747,34.619z M310.116,38.989v-9.398h-11.78v-5.026h10.762l-0.038-0.132v-1.102l0.038,0.134
			v-6.838l-0.038,0.089v-1.101l0.038-0.088h-10.762v-5.204h11.208v-0.046h0.572V1.943l0.001,0.083V0.929l-0.001-0.094h-22.142
			v38.154H310.116z M307.644,1.943c-1.028,0.024-1.792,0.5-2.294,1.412c-0.972-0.797-1.67-1.267-2.113-1.412H307.644z
			 M289.072,1.943h2.25c-0.995,0.554-1.745,1.379-2.25,2.469V1.943z M305.792,23.464c0.06-0.709-0.104-1.33-0.484-1.856l0.661-0.042
			c0.438,0.292,0.937,0.438,1.499,0.438l0.53-0.086v1.546H305.792z M304.334,31.664c-0.619-0.205-1.146-0.336-1.589-0.396
			c-0.26-0.208-0.557-0.394-0.881-0.574h7.147v0.792c-0.298,0-0.695,0.091-1.191,0.268c-0.442-0.147-0.883-0.221-1.324-0.221h-0.794
			C305.318,31.532,304.864,31.577,304.334,31.664z M289.072,37.884V34.49c0.472,0.47,0.946,0.867,1.416,1.19
			c0.526,0.911,1.338,1.368,2.425,1.368c0.912,0,1.836-0.103,2.779-0.311l0.045,0.087l-0.225,0.181l0.264-0.092
			c0.154,0.386,0.371,0.709,0.666,0.972H289.072z M301.468,37.884c0.971-0.558,1.691-0.983,2.162-1.277
			c0.323,0.057,0.882,0.294,1.678,0.703c0.672,0.354,1.233,0.544,1.676,0.574H301.468z"/>
	</g>
</g>
</svg>
